<svg width="31" height="30" viewBox="0 0 31 30" fill="none" xmlns="http://www.w3.org/2000/svg">
<path d="M17.125 10.1375L18.775 13.4375C19 13.8875 19.6 14.3375 20.1 14.4125L23.0875 14.9125C25 15.2375 25.45 16.6125 24.075 17.9875L21.75 20.325C21.3625 20.7125 21.1375 21.475 21.2625 22.025L21.925 24.9125C22.45 27.1875 21.2375 28.075 19.225 26.8875L16.425 25.225C15.9125 24.925 15.0875 24.925 14.575 25.225L11.7625 26.875C9.75003 28.0625 8.53753 27.175 9.06253 24.9L9.72503 22.0125C9.85003 21.475 9.62503 20.7125 9.23753 20.3125L6.92503 18C5.55003 16.625 6.00003 15.2375 7.91253 14.925L10.9 14.425C11.4 14.3375 12 13.9 12.225 13.45L13.875 10.15C14.7625 8.35 16.2375 8.35 17.125 10.1375Z" fill="#FFA959"/>
<path d="M8 12.1875C7.4875 12.1875 7.0625 11.7625 7.0625 11.25V2.5C7.0625 1.9875 7.4875 1.5625 8 1.5625C8.5125 1.5625 8.9375 1.9875 8.9375 2.5V11.25C8.9375 11.7625 8.5125 12.1875 8 12.1875Z" fill="#FFA959"/>
<path d="M23 12.1875C22.4875 12.1875 22.0625 11.7625 22.0625 11.25V2.5C22.0625 1.9875 22.4875 1.5625 23 1.5625C23.5125 1.5625 23.9375 1.9875 23.9375 2.5V11.25C23.9375 11.7625 23.5125 12.1875 23 12.1875Z" fill="#FFA959"/>
<path d="M15.5 5.9375C14.9875 5.9375 14.5625 5.5125 14.5625 5V2.5C14.5625 1.9875 14.9875 1.5625 15.5 1.5625C16.0125 1.5625 16.4375 1.9875 16.4375 2.5V5C16.4375 5.5125 16.0125 5.9375 15.5 5.9375Z" fill="#FFA959"/>
</svg>
