<svg width="19" height="20" viewBox="0 0 19 20" fill="none" xmlns="http://www.w3.org/2000/svg">
<path d="M11.125 2.1375L12.775 5.4375C13 5.8875 13.6 6.3375 14.1 6.4125L17.0875 6.9125C19 7.2375 19.45 8.6125 18.075 9.9875L15.75 12.325C15.3625 12.7125 15.1375 13.475 15.2625 14.025L15.925 16.9125C16.45 19.1875 15.2375 20.075 13.225 18.8875L10.425 17.225C9.91253 16.925 9.08753 16.925 8.57503 17.225L5.76253 18.875C3.75003 20.0625 2.53753 19.175 3.06253 16.9L3.72503 14.0125C3.85003 13.475 3.62503 12.7125 3.23753 12.3125L0.925028 10C-0.449972 8.625 2.77758e-05 7.2375 1.91253 6.925L4.90003 6.425C5.40003 6.3375 6.00003 5.9 6.22503 5.45L7.87503 2.15C8.76253 0.349998 10.2375 0.349998 11.125 2.1375Z" fill="#FFA959"/>
</svg>
